# xmcd CD database file
# Generated: Sun Apr 6 18:26:08 2003 by KSCD
# 
# Track frame offsets:
#       150
#       28672
#       53529
#       78905
#       101794
#       129755
#       146268
#       199171
#       239106
#       258854
#       274342
#
# Disc length: 3948 seconds
#
# Revision: 2
# Processed by: cddbd v1.4PL0 Copyright (c) Steve Scherf et al.
# Submitted via: Kscd 1.3.3
#
DISCID=940f6a0b
DTITLE=nina simone - platnium series
DYEAR=1900
DGENRE=
TTITLE0=to be young gifted and black
TTITLE1=trouble in mind
TTITLE2=after youve gone
TTITLE3=nobody
TTITLE4=aint got no i got life
TTITLE5=i want a little sugar in my bowl
TTITLE6=gin house blues
TTITLE7=four women
TTITLE8=no opportunity necessary no experience needed
TTITLE9=backlash blues
TTITLE10=the assignment
EXTD=
EXTT0=
EXTT1=
EXTT2=
EXTT3=
EXTT4=
EXTT5=
EXTT6=
EXTT7=
EXTT8=
EXTT9=
EXTT10=
PLAYORDER=
